<?xml version="1.0" encoding="utf-8"?>
<!-- Generator: Adobe Illustrator 21.1.0, SVG Export Plug-In . SVG Version: 6.00 Build 0)  -->
<svg version="1.1" id="Layer_1" xmlns="http://www.w3.org/2000/svg" xmlns:xlink="http://www.w3.org/1999/xlink" x="0px" y="0px"
	 viewBox="0 0 841.9 595.3" style="enable-background:new 0 0 841.9 595.3;" xml:space="preserve">
<style type="text/css">
	.st0{fill:#F69331;}
	.st1{fill:#BF3875;}
	.st2{fill:#DC71A1;}
	.st3{fill:#11A9E1;}
	.st4{fill:#FDD300;}
	.st5{fill:#82BF5C;}
	.st6{fill:#60B454;}
	.st7{fill:#5ECBF1;}
</style>
<g>
	<g>
		<path class="st0" d="M266.7,105.8l-51.4,184.3c-1.2,4.3-1.3,6.7-0.4,6.3c0.7-0.2,1.9-1.7,3.5-4.6l91-152.3
			c7.8-13.9,2.9-29.5-4.2-35.7l-13.6-9.6c-2.4-1.7-8.3-3.3-12.8-1.7C276.3,93.6,270.1,95.9,266.7,105.8z"/>
	</g>
	<g>
		<g>
			<path class="st1" d="M327.7,120.9c-7.1,3.3-8.1,9.6-0.9,14.7c0,0,12.5,7.8,18,11.2c5.1,3.2,16.1,5.2,24.4,2.9
				c1.4-0.4,5.2-1.4,6.7-2.4C407.2,127.7,501,67.2,501,67.2c6-4.2,4.7-5.7-2.1-3.5L327.7,120.9z"/>
		</g>
	</g>
	<g>
		<g>
			<path class="st2" d="M509.8,78.3c-6.7-1.4-12.8,1.8-13.7,2.4c-30.1,19.8-119.2,79.2-119.2,79.2c-11,7.7-6.1,15.2,3,16.8
				C409.7,182,544.3,207,544.3,207c1.7,0.3,8.1-0.3,10.6-2.7c3.9-3.7,5-8.7,3.5-14.1L522.5,88.6C520.5,84.1,515.3,79.5,509.8,78.3z"
				/>
		</g>
	</g>
	<g>
		<path class="st3" d="M345,198.4l47,179.9c2.2,6.7,7.3,9.6,10.1,9.7c1.5,0,4.8-0.9,9.5-5.3l119.9-151.6c6.2-9.9,4-19.8-7.6-22.8
			c0,0-123.6-22.4-163.3-28.9c-4.5-0.7-9.2,1.3-10.6,2.6C347.2,184.4,343.4,189.5,345,198.4z"/>
	</g>
	<g>
		<g>
			<path class="st4" d="M536.9,128.2l36.5,102.7c4.6,10.7,19,23.8,30.9,26.3l40.7,9.1c6.1,1.6,9.8,1.5,10.8,1.2
				c2.3-0.8,7.2-2.5,1.2-11.5c0,0-92.7-107.6-113.5-130.5c-2.9-3.2-5-4.1-6.1-3.5C536,122.7,535.9,124.8,536.9,128.2z"/>
		</g>
	</g>
	<path class="st0" d="M556,269.2c-3.3,2.9-5.3,6.8-4.8,12l20.2,212c0.4,3.9,1.5,7.8,3,7.7c1.2-0.1,2.8-2.8,3.7-6l54.2-194.2
		c3.3-11.8-5.8-21.2-13.2-22.8L567,266.4C565.3,266,560.2,265.8,556,269.2"/>
	<g>
		<g>
			<path class="st5" d="M513.7,243.5C482.9,283,395,395.1,395,395.1c-5.3,8.3-5.7,22,7.1,27L520.2,466c18.3,8,21.5,5.6,26.6,1.5
				c1.9-1.5,4.9-8.3,4.5-13.1c-3.7-41.7-14.5-141.9-20.3-203c-0.7-7.3-3.4-11.2-6.5-12.1C521.5,238.5,516.6,239.9,513.7,243.5z"/>
		</g>
	</g>
	<g>
		<g>
			<path class="st6" d="M354.9,421.7l-24.8,98.8c-1.6,9.2,4.3,14.3,13.7,11.3l168.7-57.7c7-2.4,9.1-8.6-0.2-12
				c-32.4-12.2-102.6-39.3-136.3-51.9c-2.1-0.8-7.4-0.8-9-0.3C362.8,411.1,357.5,414.1,354.9,421.7z"/>
		</g>
	</g>
	<g>
		<path class="st7" d="M310.4,139.4c-4.3-0.6-8.1,2.5-10.2,6.1c-23.8,40.7-86.3,149.8-86.3,149.8c-6.3,9.2-11,26.2,5,31.4
			l129.6,20.7c7,0.2,9.8-1.3,12.6-3.9c4.3-3.8,5.1-11.7,3.7-17.1c0,0-35-134.9-46.4-177.9C317.3,143.8,314.5,139.9,310.4,139.4z"/>
	</g>
	<g>
		<g>
			<path class="st4" d="M182.7,335.1c-1.5,2.2-0.5,5.6,2.6,9.1L297.6,473c3.3,4.2,8.2,9.3,13.2,8.1c5.6-1.3,7.2-7.9,8-11.5
				l22.3-95.9c0.8-8.9-5.3-18.6-14.9-19.8l-134.4-20.9C190,332.7,184.4,332.6,182.7,335.1z"/>
		</g>
	</g>
</g>
</svg>
